<?xml version="1.0" standalone="no"?>
<!DOCTYPE svg PUBLIC "-//W3C//DTD SVG 20010904//EN"
 "http://www.w3.org/TR/2001/REC-SVG-20010904/DTD/svg10.dtd">
<svg version="1.0" xmlns="http://www.w3.org/2000/svg"
 width="500.000000pt" height="500.000000pt" viewBox="0 0 500.000000 500.000000"
 preserveAspectRatio="xMidYMid meet">

<g transform="translate(0.000000,500.000000) scale(0.100000,-0.100000)"
fill="#000000" stroke="none">
<path d="M1635 4230 c-61 -30 -74 -61 -86 -202 -5 -68 -19 -221 -30 -341 -31
-323 -24 -659 21 -1002 18 -137 37 -254 43 -260 11 -12 11 -9 -32 327 -28 214
-31 264 -31 510 0 178 6 320 15 408 9 74 20 203 25 287 11 169 23 217 61 245
55 41 92 35 243 -36 123 -59 253 -130 369 -203 l38 -24 -39 -47 c-50 -59 -98
-139 -107 -175 -4 -15 -11 -30 -16 -33 -13 -8 -222 55 -231 70 -4 6 -8 22 -9
36 -1 21 -2 20 -11 -10 -7 -22 -8 -152 -5 -360 4 -258 9 -337 22 -384 l16 -58
-35 -75 c-20 -41 -36 -82 -36 -92 0 -9 9 2 20 24 10 22 30 53 43 68 l24 28 31
-83 c18 -46 32 -102 32 -125 0 -45 -17 -103 -31 -103 -4 0 -6 -6 -3 -13 2 -7
-4 -41 -14 -74 -12 -37 -16 -66 -11 -75 6 -9 9 -3 9 19 0 40 12 48 35 23 10
-11 15 -20 10 -20 -4 0 -2 -7 5 -15 22 -26 22 -9 1 33 -12 23 -17 43 -12 47 5
3 12 -1 15 -7 3 -7 4 -3 3 9 -1 11 9 36 22 53 l23 32 18 -30 c11 -17 44 -49
74 -72 59 -43 67 -62 39 -92 -15 -17 -12 -18 83 -18 97 0 143 11 151 37 2 6
-13 28 -35 50 -21 21 -51 59 -66 85 -26 45 -27 49 -16 110 7 35 21 84 31 109
19 44 22 46 92 66 40 12 79 24 88 28 22 8 52 -97 52 -185 0 -59 1 -60 5 -15
l4 50 18 -52 19 -53 -33 -72 c-35 -78 -51 -138 -36 -138 5 0 23 22 41 50 17
27 36 47 42 43 6 -3 7 -1 3 5 -4 6 -4 23 0 37 6 25 7 24 35 -20 17 -27 38 -47
54 -51 32 -8 42 0 25 21 -7 8 -8 15 -3 15 21 0 33 -27 33 -72 l0 -48 366 0
365 0 -26 43 c-70 112 -76 136 -75 301 1 83 -2 171 -6 195 -6 36 -5 43 7 36 8
-5 6 1 -4 12 -10 12 -17 27 -16 35 2 7 -1 38 -5 68 -32 242 -39 290 -51 325
-7 22 -16 56 -19 75 -6 31 -5 33 6 15 6 -11 18 -40 24 -65 8 -27 13 -36 13
-22 1 33 -39 123 -52 115 -5 -3 -7 -2 -4 4 6 10 -54 167 -91 238 -25 49 -62
91 -127 146 -27 23 -50 48 -51 57 -3 15 -22 32 -38 32 -4 0 2 -8 14 -18 34
-28 1 -36 -36 -10 -16 11 -21 17 -11 14 10 -3 16 -2 13 3 -3 5 -33 9 -65 9
-33 0 -75 5 -93 10 -18 6 -91 13 -161 16 -147 6 -201 -6 -286 -67 l-48 -35
-99 61 c-140 85 -448 237 -481 237 -16 0 -46 -9 -68 -20z m774 -389 c22 -22
77 -169 86 -234 l7 -47 -28 9 c-16 5 -51 12 -79 15 -57 7 -46 -7 20 -24 86
-23 95 -29 95 -69 0 -59 -9 -81 -29 -71 -9 5 -34 17 -56 27 -22 9 -43 19 -48
21 -12 6 -2 -34 12 -52 9 -11 30 -16 64 -16 l50 0 -7 -47 c-3 -27 -6 -130 -7
-230 -2 -157 -4 -183 -18 -189 -9 -3 -81 -8 -161 -11 -144 -5 -145 -5 -200 24
l-55 28 2 50 c3 89 31 351 41 388 6 20 22 52 38 72 25 33 30 36 65 30 35 -6
39 -4 54 25 19 36 14 61 -23 109 l-25 34 34 64 c19 36 47 76 62 89 34 29 80
31 106 5z m-407 -157 c57 -20 104 -37 105 -38 5 -4 -30 -137 -63 -233 -59
-177 -58 -359 2 -494 l25 -56 -28 -46 c-15 -26 -31 -47 -34 -47 -3 0 -13 23
-22 51 -14 47 -14 54 0 78 14 24 14 24 -1 7 -9 -11 -17 -18 -19 -15 -2 2 -20
58 -41 124 l-38 120 -9 245 c-9 240 -6 340 11 340 5 0 55 -16 112 -36z m227
-60 c21 -26 29 -84 12 -84 -5 0 -22 3 -39 6 -28 6 -30 9 -25 43 10 71 19 77
52 35z"/>
<path d="M2124 3418 l-19 -23 23 19 c21 18 27 26 19 26 -2 0 -12 -10 -23 -22z"/>
<path d="M2101 3374 c-1 -11 10 -35 24 -54 14 -19 25 -29 25 -23 0 6 -7 16
-15 23 -8 7 -19 27 -24 44 -6 21 -9 25 -10 10z"/>
<path d="M2165 3323 c11 -3 27 -10 35 -17 13 -10 13 -9 1 7 -7 9 -23 16 -35
16 -20 -1 -20 -2 -1 -6z"/>
<path d="M2250 3302 c0 -7 -10 -13 -22 -13 -19 -1 -20 -2 -4 -6 20 -5 44 12
33 24 -4 3 -7 1 -7 -5z"/>
<path d="M2131 3261 c-8 -5 -21 -6 -30 -3 -14 5 -14 4 -1 -10 9 -8 25 -18 36
-22 11 -3 34 -21 50 -38 16 -18 20 -25 8 -15 -11 9 -30 17 -42 17 -11 0 -24 5
-27 10 -8 12 -25 13 -25 1 0 -5 8 -11 18 -14 9 -4 34 -13 55 -20 20 -8 37 -12
37 -8 0 3 5 -1 10 -9 8 -13 10 -13 10 1 0 21 -74 89 -97 89 -15 0 -14 2 3 15
21 16 17 20 -5 6z"/>
<path d="M2113 3118 c14 -9 123 -11 114 -2 -3 3 -33 7 -66 8 -33 1 -55 -2 -48
-6z"/>
<path d="M1953 3110 c0 -25 2 -35 4 -22 2 12 2 32 0 45 -2 12 -4 2 -4 -23z"/>
<path d="M1622 4178 c-10 -13 -1 -163 12 -175 3 -4 6 18 6 48 0 65 17 103 48
107 19 3 21 6 11 18 -14 17 -63 18 -77 2z"/>
<path d="M2628 4073 c7 -3 16 -2 19 1 4 3 -2 6 -13 5 -11 0 -14 -3 -6 -6z"/>
<path d="M1732 4048 c-7 -7 -12 -18 -12 -25 0 -7 -7 -13 -15 -13 -8 0 -15 -4
-15 -10 0 -19 29 -10 58 20 16 16 27 32 24 35 -9 9 -27 6 -40 -7z"/>
<path d="M3386 2867 c3 -10 9 -15 12 -12 3 3 0 11 -7 18 -10 9 -11 8 -5 -6z"/>
<path d="M2371 2734 c0 -11 3 -14 6 -6 3 7 2 16 -1 19 -3 4 -6 -2 -5 -13z"/>
<path d="M1867 2709 c7 -7 15 -10 18 -7 3 3 -2 9 -12 12 -14 6 -15 5 -6 -5z"/>
<path d="M2346 2672 c-3 -5 1 -9 9 -9 8 0 12 4 9 9 -3 4 -7 8 -9 8 -2 0 -6 -4
-9 -8z"/>
<path d="M1780 2661 c24 -17 91 -23 135 -13 40 10 40 10 -21 11 -34 1 -77 4
-95 7 -26 4 -30 3 -19 -5z"/>
<path d="M2339 2633 c-13 -16 -12 -17 4 -4 9 7 17 15 17 17 0 8 -8 3 -21 -13z"/>
<path d="M2306 2617 c3 -10 9 -15 12 -12 3 3 0 11 -7 18 -10 9 -11 8 -5 -6z"/>
<path d="M3420 2585 c13 -14 26 -25 28 -25 3 0 -5 11 -18 25 -13 14 -26 25
-28 25 -3 0 5 -11 18 -25z"/>
<path d="M1716 2556 c-32 -30 -66 -89 -66 -116 0 -5 11 -10 25 -10 22 0 25 4
25 38 0 46 20 76 68 102 36 18 36 19 10 20 -17 0 -39 -12 -62 -34z"/>
<path d="M2316 2573 c-6 -14 -5 -15 5 -6 7 7 10 15 7 18 -3 3 -9 -2 -12 -12z"/>
<path d="M2605 2555 c4 -11 9 -28 12 -37 5 -16 82 -68 100 -68 4 0 0 5 -11 11
-15 9 -16 13 -5 20 10 6 7 9 -12 9 -31 0 -52 16 -74 55 -9 17 -13 21 -10 10z"/>
<path d="M1618 2525 c-11 -59 -10 -91 3 -78 5 5 9 34 7 64 l-3 54 -7 -40z"/>
<path d="M1989 2528 c-3 -15 -3 -32 1 -38 11 -19 17 2 10 35 l-6 30 -5 -27z"/>
<path d="M1941 2463 c-1 -12 4 -25 9 -28 12 -7 12 2 0 30 -8 19 -9 19 -9 -2z"/>
<path d="M2078 2473 c7 -3 16 -2 19 1 4 3 -2 6 -13 5 -11 0 -14 -3 -6 -6z"/>
<path d="M1126 2205 c-51 -18 -94 -61 -106 -107 -22 -78 13 -123 155 -197 49
-25 94 -54 99 -63 38 -64 -113 -81 -184 -22 -30 25 -31 26 -57 9 l-27 -18 41
-38 c86 -80 230 -80 316 0 33 32 40 45 44 87 7 74 -20 107 -139 169 -105 55
-128 71 -128 90 0 43 113 53 176 16 l37 -22 25 24 24 24 -29 20 c-62 44 -169
56 -247 28z"/>
<path d="M1490 1965 l0 -245 65 0 65 0 0 105 0 105 75 0 75 0 0 -105 0 -105
65 0 65 0 0 245 0 245 -65 0 -65 0 0 -105 0 -105 -75 0 -75 0 0 105 0 105 -65
0 -65 0 0 -245z"/>
<path d="M2070 2028 c-34 -101 -73 -211 -86 -245 l-23 -63 38 0 c37 0 37 0 57
63 l20 62 75 3 75 3 20 -63 20 -63 71 -3 70 -3 -86 246 -85 245 -51 0 -51 0
-64 -182z m109 -30 c29 -87 29 -88 -29 -88 -27 0 -50 2 -50 3 0 3 33 103 45
135 8 21 13 14 34 -50z"/>
<path d="M2514 1968 l71 -243 46 -3 45 -3 44 161 c23 88 44 160 45 160 1 0 22
-72 45 -160 l43 -161 45 3 46 3 68 230 c37 127 68 236 68 243 0 7 -13 12 -35
12 -29 0 -36 -4 -42 -27 -3 -16 -21 -84 -38 -153 l-32 -125 -21 70 c-12 39
-31 107 -44 153 l-23 82 -47 0 -47 0 -15 -52 c-8 -29 -27 -97 -42 -151 -15
-54 -31 -92 -35 -85 -3 7 -21 75 -40 151 l-33 137 -72 0 -71 0 71 -242z"/>
<path d="M3120 2180 l0 -30 75 0 75 0 0 -215 0 -215 65 0 65 0 0 215 0 215 70
0 70 0 0 30 0 30 -210 0 -210 0 0 -30z"/>
<path d="M3583 2198 c3 -7 33 -75 66 -151 61 -137 61 -139 61 -233 l0 -94 65
0 65 0 0 95 0 95 75 150 75 150 -38 0 -38 0 -49 -100 c-27 -55 -52 -100 -55
-100 -3 0 -23 45 -44 100 l-39 100 -75 0 c-55 0 -73 -3 -69 -12z"/>
<path d="M1936 1543 c-6 -14 -5 -15 5 -6 7 7 10 15 7 18 -3 3 -9 -2 -12 -12z"/>
<path d="M2552 1474 c2 -84 2 -85 5 -21 4 62 6 67 20 55 13 -10 13 -7 -2 17
-11 17 -20 32 -22 34 -2 2 -2 -36 -1 -85z"/>
<path d="M2136 1531 c-10 -11 -16 -26 -13 -33 4 -10 6 -10 6 1 1 8 8 23 18 33
9 10 14 18 11 18 -3 0 -13 -9 -22 -19z"/>
<path d="M2352 1473 l-2 -83 48 2 47 1 -42 4 c-41 4 -43 5 -43 38 0 29 4 34
28 38 l27 4 -27 2 c-23 1 -27 6 -31 39 -2 20 -4 0 -5 -45z"/>
<path d="M2652 1486 c-2 -63 -3 -67 -19 -55 -13 11 -13 8 3 -16 l19 -29 3 42
c2 23 1 61 -1 85 -2 29 -4 22 -5 -27z"/>
<path d="M2796 1528 c-9 -12 -15 -38 -15 -58 1 -34 2 -33 9 9 4 25 15 50 25
57 10 8 14 14 7 14 -6 0 -18 -10 -26 -22z"/>
<path d="M3010 1541 c0 -6 4 -13 10 -16 6 -3 7 1 4 9 -7 18 -14 21 -14 7z"/>
<path d="M3096 1533 c-6 -14 -5 -15 5 -6 7 7 10 15 7 18 -3 3 -9 -2 -12 -12z"/>
<path d="M1971 1460 c0 -8 4 -22 9 -30 12 -18 12 -2 0 25 -6 13 -9 15 -9 5z"/>
<path d="M2223 1435 c0 -22 2 -30 4 -17 2 12 2 30 0 40 -3 9 -5 -1 -4 -23z"/>
<path d="M2120 1444 c0 -6 7 -19 16 -30 14 -18 14 -18 3 6 -14 31 -19 36 -19
24z"/>
<path d="M2804 1413 c12 -14 29 -22 45 -22 l26 2 -25 4 c-14 3 -34 12 -45 21
-20 17 -20 17 -1 -5z"/>
<path d="M2173 1393 c9 -2 23 -2 30 0 6 3 -1 5 -18 5 -16 0 -22 -2 -12 -5z"/>
<path d="M1791 1214 c-155 -78 -186 -289 -60 -412 183 -179 486 7 414 255 -13
46 -28 69 -70 110 -82 80 -184 96 -284 47z m167 -67 c35 -37 52 -91 52 -164
-1 -152 -93 -234 -168 -149 -27 31 -52 104 -52 151 0 8 5 37 11 65 22 102 104
153 157 97z"/>
<path d="M3654 1217 c-68 -33 -98 -81 -91 -144 6 -60 36 -88 155 -148 100 -51
120 -72 101 -106 -10 -19 -18 -21 -79 -17 -54 3 -74 9 -103 31 -32 24 -39 26
-57 15 -26 -16 -25 -30 3 -56 109 -102 314 -73 362 52 33 86 -6 140 -157 215
-97 48 -117 73 -83 101 26 22 122 16 156 -10 l31 -22 24 23 c13 12 24 25 24
29 0 3 -19 17 -42 30 -64 36 -176 39 -244 7z"/>
<path d="M1070 985 l0 -245 35 0 34 0 3 145 3 145 45 -145 45 -145 52 0 52 0
48 148 48 147 3 -147 3 -148 64 0 65 0 0 245 0 245 -67 0 -68 0 -54 -155 c-29
-85 -56 -155 -60 -155 -4 0 -32 70 -62 155 l-54 155 -67 0 -68 0 0 -245z"/>
<path d="M2240 985 l0 -245 118 0 c101 0 124 3 167 24 93 43 139 120 139 231
-1 105 -69 198 -165 225 -19 6 -85 10 -146 10 l-113 0 0 -245z m225 163 c38
-30 55 -76 55 -154 0 -124 -42 -194 -116 -194 l-34 0 0 185 0 185 34 0 c19 0
45 -9 61 -22z"/>
<path d="M2750 985 l0 -245 170 0 170 0 0 30 0 30 -105 0 -105 0 0 75 0 75 55
0 55 0 0 35 0 35 -55 0 -55 0 0 75 0 75 100 0 100 0 0 30 0 30 -165 0 -165 0
0 -245z"/>
<path d="M3170 985 l0 -245 175 0 175 0 0 30 0 30 -110 0 -110 0 0 215 0 215
-65 0 -65 0 0 -245z"/>
</g>
</svg>
