<?xml version="1.0" standalone="no"?>
<!DOCTYPE svg PUBLIC "-//W3C//DTD SVG 20010904//EN"
 "http://www.w3.org/TR/2001/REC-SVG-20010904/DTD/svg10.dtd">
<svg version="1.0" xmlns="http://www.w3.org/2000/svg"
 width="500.000000pt" height="500.000000pt" viewBox="0 0 500.000000 500.000000"
 preserveAspectRatio="xMidYMid meet">

<g transform="translate(0.000000,500.000000) scale(0.100000,-0.100000)"
fill="#000000" stroke="none">
<path d="M819 4337 c-175 -60 -207 -145 -228 -597 -6 -118 -13 -228 -16 -245
-3 -16 -19 -162 -35 -324 -30 -291 -30 -302 -30 -890 0 -576 1 -603 26 -811
51 -437 123 -953 134 -964 24 -24 25 21 3 181 -12 93 -45 348 -74 568 l-51
400 -2 625 -1 625 38 340 c21 187 42 428 47 534 14 295 34 397 88 454 44 46
119 79 192 85 l66 4 334 -165 c205 -101 420 -216 555 -297 121 -73 225 -137
232 -144 10 -8 0 -27 -44 -81 -131 -163 -211 -294 -253 -411 l-25 -71 -239 71
c-265 80 -254 72 -255 166 -1 32 -5 50 -10 45 -26 -28 -33 -109 -41 -475 -8
-331 -6 -431 10 -710 17 -284 22 -337 45 -420 32 -114 30 -176 -7 -247 -80
-151 -99 -193 -104 -235 -5 -33 -3 -48 5 -48 6 0 11 6 11 13 0 45 36 124 75
166 23 25 54 63 67 83 l25 37 13 -42 c6 -23 37 -109 67 -192 53 -146 54 -152
51 -237 -2 -48 -6 -90 -9 -93 -3 -2 -39 -9 -80 -15 -69 -10 -253 3 -356 25
-48 11 -4 -11 83 -41 69 -23 89 -26 159 -21 44 4 104 12 133 20 28 8 52 12 52
10 0 -21 -45 -84 -63 -87 -82 -17 -128 -29 -124 -32 2 -2 28 0 57 6 79 15 83
14 76 -17 -3 -16 -11 -55 -17 -88 -6 -33 -19 -79 -30 -102 -10 -24 -19 -55
-18 -70 l1 -28 7 25 c6 20 8 15 13 -28 3 -29 10 -58 16 -64 7 -7 8 1 1 28 -11
50 -12 144 0 144 5 0 14 14 21 30 18 43 22 32 10 -29 -12 -64 2 -136 32 -168
33 -35 40 -16 11 30 -20 31 -28 58 -30 102 -4 56 -3 59 11 35 8 -14 12 -28 9
-33 -2 -4 0 -6 6 -5 6 2 20 -13 32 -32 l21 -35 -26 30 c-29 33 -35 28 -10 -10
14 -22 52 -46 39 -25 -9 14 8 12 25 -3 8 -6 7 -3 -3 9 -9 11 -17 24 -17 28 0
5 -12 22 -26 39 -16 19 -24 39 -21 53 2 13 -1 22 -6 21 -16 -3 -20 32 -6 49
10 12 16 6 35 -38 12 -29 25 -65 28 -79 7 -32 40 -75 69 -91 15 -8 10 2 -15
30 -21 23 -38 46 -38 52 0 5 17 2 38 -7 24 -10 74 -17 142 -19 l105 -3 -103
10 c-56 5 -119 15 -140 22 -36 12 -37 13 -37 62 0 28 3 68 7 90 6 35 5 33 -8
-10 -26 -85 -24 -82 -34 -65 -4 8 -11 31 -15 50 -5 29 -2 39 14 54 11 10 19
22 16 26 -2 4 9 20 25 35 17 16 30 25 30 20 0 -5 7 0 15 11 13 17 14 17 15 2
0 -10 -1 -19 -2 -21 -2 -1 2 -9 9 -17 62 -75 84 -97 137 -133 169 -114 192
-162 105 -223 l-29 -21 167 -6 c227 -9 332 9 366 65 13 20 -27 77 -83 117 -21
14 -47 41 -59 59 -20 30 -20 34 -5 57 10 16 14 37 12 57 -5 28 1 38 36 73 42
41 72 109 60 139 -3 9 -2 16 3 16 16 0 -3 153 -25 203 -11 26 -23 47 -26 47
-3 0 4 -21 15 -46 43 -97 34 -203 -23 -272 -28 -34 -27 -34 11 5 22 23 41 37
41 31 0 -24 -41 -95 -70 -123 l-31 -30 -26 34 c-15 19 -42 48 -60 64 -29 27
-33 35 -27 66 16 94 49 204 84 278 32 69 43 83 67 88 101 22 169 41 246 69
l87 33 6 -26 c4 -14 21 -78 40 -142 31 -109 32 -122 27 -230 -4 -93 -2 -120
11 -149 9 -19 14 -26 11 -16 -12 40 -15 133 -8 181 l8 50 32 -90 c17 -49 33
-101 35 -115 2 -15 -16 -64 -45 -124 -75 -154 -128 -336 -98 -336 15 0 102
111 132 170 l26 51 26 -35 c30 -39 196 -142 260 -161 30 -9 43 -18 45 -34 l3
-21 760 0 c417 0 759 2 759 4 0 3 -24 44 -54 93 -29 48 -66 113 -81 143 l-27
55 26 -25 c15 -13 48 -55 73 -92 26 -37 48 -66 50 -64 10 10 -32 71 -91 134
-74 79 -81 91 -91 157 l-7 50 27 -25 c25 -23 154 -181 198 -240 l17 -25 -14
30 c-23 47 -71 109 -149 191 l-72 77 0 268 c0 148 0 269 1 269 0 0 18 -43 39
-95 21 -52 40 -93 42 -92 6 7 -22 87 -52 148 -31 61 -51 132 -62 221 l-5 37
53 -29 c30 -16 59 -30 64 -29 6 0 -8 9 -30 21 -63 32 -95 67 -95 103 0 29 2
31 29 27 30 -4 71 12 71 29 0 5 -11 2 -24 -6 -15 -10 -33 -14 -50 -9 -29 7
-29 4 -51 209 -17 158 -52 400 -65 460 -7 29 -5 52 7 87 23 70 11 119 -64 270
-36 73 -83 185 -105 248 -49 141 -112 278 -166 356 -49 72 -286 309 -300 300
-5 -3 -15 0 -21 7 -19 24 -142 72 -236 92 -44 9 -52 13 -28 14 17 0 60 -8 95
-19 79 -25 83 -24 33 3 -33 17 -58 21 -145 23 -69 1 -131 8 -180 21 -52 14
-111 21 -190 22 -63 1 -164 7 -225 13 -60 6 -128 10 -150 10 -98 -4 -281 -82
-399 -172 -37 -27 -71 -50 -75 -50 -5 0 -114 63 -242 141 -153 92 -352 200
-576 310 -383 189 -379 189 -504 146z m2754 -524 c26 -14 29 -18 13 -21 -10
-2 -28 5 -39 17 -26 25 -17 27 26 4z m-1206 -288 l51 -15 37 -88 c72 -173 145
-419 145 -492 0 -21 -14 -27 -24 -11 -11 17 -281 60 -294 46 -7 -7 95 -51 138
-59 19 -4 70 -19 114 -33 l78 -25 -3 -120 c-3 -92 -7 -121 -19 -128 -18 -12
-117 -12 -145 0 -12 4 5 6 42 3 106 -9 109 4 9 42 -49 18 -101 42 -115 53 -31
23 -71 37 -71 25 0 -17 33 -55 73 -84 22 -16 36 -29 32 -29 -4 0 -24 12 -42
26 -25 19 -37 23 -44 15 -5 -6 -7 -9 -4 -7 3 2 23 -15 45 -36 l39 -39 92 3 92
3 -7 -105 c-13 -185 -24 -755 -16 -806 5 -27 5 -52 2 -56 -17 -17 -235 -40
-428 -45 -200 -5 -215 -4 -280 17 -99 32 -177 76 -198 110 -31 53 -32 118 -2
191 16 40 26 85 26 115 0 109 41 511 61 595 19 83 26 96 82 164 57 68 65 74
92 69 47 -8 85 -25 79 -36 -3 -5 -13 -4 -22 4 -14 10 -15 10 -5 -2 10 -11 -7
-32 -93 -113 -104 -99 -134 -138 -134 -175 0 -11 20 -44 45 -74 25 -30 45 -60
45 -67 0 -6 5 -11 10 -11 23 0 7 36 -35 81 -76 82 -64 113 113 275 147 135
172 170 172 238 0 58 -36 130 -89 180 -17 17 -31 34 -31 39 0 16 149 274 177
308 58 69 113 83 210 54z m-830 -352 c222 -74 233 -79 233 -103 0 -56 -114
-452 -164 -571 -16 -39 -41 -53 -116 -68 l-45 -9 38 -1 c21 -1 54 6 73 14 32
13 35 13 30 0 -3 -8 -13 -68 -22 -132 -12 -90 -15 -159 -11 -293 4 -96 9 -188
12 -205 l7 -30 -21 25 c-30 38 -44 102 -39 178 3 38 2 58 -3 47 -11 -28 -11
-149 0 -178 5 -14 23 -40 40 -59 17 -19 35 -55 40 -79 12 -53 63 -179 91 -225
24 -38 23 -42 -42 -136 -22 -31 -46 -74 -53 -95 -9 -25 -15 -33 -19 -23 -42
111 -221 689 -236 760 -31 151 -41 298 -34 510 5 152 3 220 -10 310 -13 93
-14 139 -6 240 5 69 10 142 10 163 0 20 3 37 7 37 4 0 112 -35 240 -77z m486
-123 c39 -46 61 -117 52 -162 -5 -23 -11 -28 -23 -22 -10 4 -43 9 -75 12 -31
2 -60 8 -63 13 -6 11 14 162 27 195 11 31 32 22 82 -36z m2264 -363 c3 -30 2
-68 -2 -84 -6 -23 -14 -3 -45 122 -20 83 -40 161 -43 175 -4 14 14 -16 39 -66
30 -62 47 -109 51 -147z m-2100 -1754 c25 -43 30 -113 8 -120 -11 -3 -77 95
-94 140 -6 16 -8 40 -5 53 l7 25 29 -28 c16 -15 41 -47 55 -70z m718 -188 c40
-50 38 -55 -10 -25 -50 31 -60 51 -91 175 -3 11 11 -8 30 -43 19 -35 51 -83
71 -107z m60 62 c14 -37 -3 -27 -41 25 l-38 53 37 -30 c19 -16 39 -38 42 -48z
m-144 -32 c16 -35 29 -68 29 -71 0 -12 -42 29 -60 59 -15 24 -17 77 -3 77 2 0
17 -29 34 -65z m267 -82 c-2 -24 0 -43 4 -43 5 0 8 -18 8 -40 l0 -39 -39 14
c-22 7 -52 20 -68 28 l-28 15 35 9 35 10 -40 7 c-74 13 -105 27 -127 59 l-23
32 35 -25 c18 -13 43 -25 54 -25 12 -1 38 -5 59 -9 25 -6 42 -4 52 4 13 11 11
18 -16 51 l-31 39 46 -22 c45 -22 46 -24 44 -65z m-1617 -160 c13 -16 12 -17
-3 -4 -17 13 -22 21 -14 21 2 0 10 -8 17 -17z"/>
<path d="M1852 2418 c3 -7 20 -14 39 -16 47 -4 90 -22 82 -35 -4 -6 -1 -7 7
-2 10 6 5 15 -19 37 -23 21 -41 28 -72 28 -28 0 -39 -4 -37 -12z"/>
<path d="M2086 2392 c-9 -38 -35 -55 -70 -46 -31 7 -55 -4 -35 -17 49 -31 124
13 117 67 l-4 29 -8 -33z"/>
<path d="M1845 2300 c-10 -11 -25 -20 -33 -20 -12 0 -12 -3 -2 -15 15 -18 46
-4 55 26 9 29 1 33 -20 9z"/>
<path d="M1730 2249 c-6 -11 -9 -28 -7 -37 4 -14 5 -13 6 3 1 11 6 27 11 35 8
12 12 11 32 -7 13 -11 39 -26 59 -32 23 -7 68 -42 118 -91 45 -44 79 -80 76
-80 -4 0 -33 20 -65 45 -42 32 -68 45 -91 45 -19 0 -46 10 -65 25 -39 30 -44
31 -44 8 0 -19 119 -84 151 -83 9 0 37 -12 63 -26 25 -14 57 -27 70 -28 22 -3
17 6 -38 73 -71 86 -111 117 -173 132 -23 6 -48 17 -54 25 -16 20 -37 17 -49
-7z"/>
<path d="M1715 2055 c15 -66 59 -85 192 -84 54 0 118 4 143 8 44 7 44 7 -29
13 -41 4 -108 5 -150 2 -89 -6 -117 5 -144 56 -19 34 -19 35 -12 5z"/>
<path d="M1459 2068 c-19 -83 -16 -185 9 -240 25 -56 38 -65 15 -11 -21 51
-28 177 -14 242 15 70 7 78 -10 9z"/>
<path d="M1570 1634 c0 -6 -18 -41 -41 -78 -44 -73 -49 -102 -6 -37 31 46 59
112 52 119 -3 3 -5 1 -5 -4z"/>
<path d="M3008 623 c7 -3 16 -2 19 1 4 3 -2 6 -13 5 -11 0 -14 -3 -6 -6z"/>
<path d="M782 4236 c-36 -17 -57 -58 -47 -96 4 -14 10 -77 14 -140 5 -77 13
-125 24 -145 16 -30 16 -30 17 50 0 94 23 211 46 236 21 23 57 31 88 19 35
-13 33 -1 -6 44 -38 43 -85 54 -136 32z"/>
<path d="M3005 4014 c22 -8 55 -22 73 -30 17 -7 32 -12 32 -9 0 9 -76 43 -110
49 l-35 6 40 -16z"/>
<path d="M2858 3994 c-40 -21 -35 -24 15 -9 23 7 51 15 62 18 12 3 6 5 -15 5
-19 1 -47 -6 -62 -14z"/>
<path d="M3155 3993 c11 -2 39 -10 63 -18 23 -8 42 -12 42 -10 0 12 -63 35
-92 34 -20 -1 -25 -3 -13 -6z"/>
<path d="M3318 3973 c6 -2 18 -2 25 0 6 3 1 5 -13 5 -14 0 -19 -2 -12 -5z"/>
<path d="M3030 3965 c0 -2 10 -10 23 -16 20 -11 21 -11 8 4 -13 16 -31 23 -31
12z"/>
<path d="M3409 3940 c29 -16 59 -34 65 -38 6 -5 34 -15 61 -21 28 -7 62 -24
77 -38 25 -24 27 -25 25 -5 -1 24 -48 47 -114 57 -23 4 -47 13 -54 22 -15 17
-83 53 -101 53 -7 0 11 -14 41 -30z"/>
<path d="M975 3935 c-14 -13 -25 -36 -25 -50 0 -22 -4 -25 -35 -25 -39 0 -44
-9 -17 -33 32 -29 68 -21 96 20 14 20 47 50 73 67 46 29 47 30 23 37 -52 15
-90 10 -115 -16z"/>
<path d="M2245 1380 c10 -11 20 -20 23 -20 3 0 -3 9 -13 20 -10 11 -20 20 -23
20 -3 0 3 -9 13 -20z"/>
<path d="M1254 1129 c44 -24 122 -49 151 -49 11 0 -25 16 -80 35 -115 40 -124
42 -71 14z"/>
<path d="M1570 902 c0 -5 -10 -14 -22 -21 -13 -6 -15 -9 -6 -7 9 3 19 0 22 -7
2 -7 5 -5 5 5 1 9 6 18 13 20 9 3 9 6 0 12 -7 4 -12 3 -12 -2z"/>
<path d="M1046 864 c-67 -21 -142 -98 -189 -194 -20 -41 -39 -87 -43 -102 -6
-28 -6 -28 49 -28 l56 0 -6 55 c-5 46 -2 63 22 110 29 59 97 120 168 150 20 8
37 17 37 20 0 9 -45 4 -94 -11z"/>
<path d="M750 782 c0 -18 -7 -67 -16 -109 -12 -62 -13 -82 -3 -102 l12 -26 15
35 c17 40 19 189 3 217 -9 15 -10 13 -11 -15z"/>
<path d="M1330 773 c-62 -70 -78 -151 -39 -194 l21 -24 -16 25 c-29 45 -14
115 39 185 42 54 39 59 -5 8z"/>
</g>
</svg>
